mtllib materials.mtl
v 0.1108334 -0.1554168 -0.04333323
v 0.1108334 0.09458333 -0.04333326
v 0.1108334 0.09458333 -0.06333327
v 0.1108334 -0.1554168 -0.06333324
v 0.09083343 -0.1554168 -0.04333323
v 0.09083343 -0.1554168 -0.06333324
v 0.09083343 0.09458333 -0.06333327
v 0.09083343 0.09458333 -0.04333326
v -0.08916664 -0.1654168 -0.04333323
v -0.08916664 0.09458333 -0.04333326
v -0.08916664 0.09458333 -0.06333327
v -0.08916664 -0.1654168 -0.06333324
v -0.1091666 -0.1654168 -0.04333323
v -0.1091666 -0.1654168 -0.06333324
v -0.1091666 0.09458333 -0.06333327
v -0.1091666 0.09458333 -0.04333326
v -0.1291666 0.09458333 0.0866667
v -0.1291666 0.09458333 -0.07333326
v -0.1291666 0.1145833 -0.07333329
v -0.1291666 0.1145833 0.0866667
v 0.1308334 0.09458333 0.0866667
v 0.1308334 0.1145833 0.0866667
v 0.1308334 0.1145833 -0.07333326
v 0.1308334 0.09458333 -0.07333326
v 0.09083343 -0.1554167 0.0866667
v 0.09083343 -0.1554167 0.06666672
v 0.09083343 0.09458333 0.06666672
v 0.09083343 0.09458333 0.0866667
v 0.1108334 -0.1554167 0.0866667
v 0.1108334 0.09458333 0.0866667
v 0.1108334 0.09458333 0.06666672
v 0.1108334 -0.1554167 0.06666672
v -0.08916664 -0.1554167 0.0866667
v -0.1091666 -0.1554167 0.0866667
v -0.1091666 0.09458333 0.0866667
v -0.08916664 0.09458333 0.0866667
v -0.08916664 -0.1554167 0.06666672
v -0.08916664 0.09458333 0.06666672
v -0.1091666 0.09458333 0.06666672
v -0.1091666 -0.1554167 0.06666672
v -0.1091666 0.05458337 0.07666683
v -0.1091666 0.09458333 0.07666683
v -0.08916664 0.09458333 0.07666683
v -0.08916664 0.05458337 0.07666683
v -0.1091666 0.05458337 -0.06333315
v -0.08916664 0.05458337 -0.06333315
v -0.08916664 0.09458333 -0.06333315
v -0.1091666 0.09458333 -0.06333315
v -0.1091666 0.05458337 -0.04333329
v -0.1091666 0.09458333 -0.04333329
v 0.1008334 0.09458333 -0.04333329
v 0.1008334 0.05458337 -0.04333329
v -0.1091666 0.05458337 -0.06333327
v 0.1008334 0.05458337 -0.06333327
v 0.1008334 0.09458333 -0.06333327
v -0.1091666 0.09458333 -0.06333327
v 0.09083343 0.05458337 0.07666683
v 0.09083343 0.09458333 0.07666683
v 0.1108334 0.09458333 0.07666683
v 0.1108334 0.05458337 0.07666683
v 0.09083343 0.05458337 -0.06333315
v 0.1108334 0.05458337 -0.06333315
v 0.1108334 0.09458333 -0.06333315
v 0.09083343 0.09458333 -0.06333315
v -0.1091666 0.04458332 -0.05333328
v -0.1091666 0.0645833 -0.05333328
v -0.1091666 0.0645833 0.0866667
v -0.1091666 0.04458332 0.0866667
v 0.1108334 0.04458332 -0.05333328
v 0.1108334 0.04458332 0.0866667
v 0.1108334 0.0645833 0.0866667
v 0.1108334 0.0645833 -0.05333328
v -0.1091666 -0.09541667 0.0866667
v -0.1091666 -0.09541667 -0.05333328
v -0.1091666 -0.07541668 -0.05333328
v -0.1091666 -0.07541668 0.0866667
v -0.08916664 -0.09541667 0.0866667
v -0.08916664 -0.07541668 0.0866667
v -0.08916664 -0.07541668 -0.05333328
v -0.08916664 -0.09541667 -0.05333328
v -0.1091666 -0.09541667 -0.04333329
v -0.1091666 -0.09541672 -0.0633333
v -0.1091666 -0.07541668 -0.0633333
v -0.1091666 -0.07541668 -0.04333329
v 0.1008334 -0.09541667 -0.04333326
v 0.1008334 -0.07541662 -0.04333326
v 0.1008334 -0.07541668 -0.06333327
v 0.1008334 -0.09541667 -0.06333327
v 0.09083343 -0.09541667 0.07666671
v 0.09083343 -0.09541667 -0.06333327
v 0.09083343 -0.07541668 -0.06333327
v 0.09083343 -0.07541668 0.07666671
v 0.1108334 -0.09541667 0.07666671
v 0.1108334 -0.07541668 0.07666671
v 0.1108334 -0.07541668 -0.06333327
v 0.1108334 -0.09541667 -0.06333327
vn 1 0 1.748456E-07
vn -1 0 -1.748456E-07
vn -1.748456E-07 1.192093E-07 1
vn 1.748456E-07 -1.192093E-07 -1
vn 0 -1 1.192093E-07
vn 0 1 -1.192093E-07
vn 1 0 1.748456E-07
vn -1 0 -1.748456E-07
vn -1.748456E-07 1.192093E-07 1
vn 1.748456E-07 -1.192093E-07 -1
vn 0 -1 1.192093E-07
vn 0 1 -1.192093E-07
vn -1 0 -8.742278E-08
vn 1 0 8.742278E-08
vn -1.528548E-14 -1 1.748456E-07
vn 1.528548E-14 1 -1.748456E-07
vn -8.742278E-08 1.748456E-07 1
vn 8.742278E-08 -1.748456E-07 -1
vn -1 0 -8.742278E-08
vn 1 0 8.742278E-08
vn 0 -1 0
vn 0 1 0
vn -8.742278E-08 0 1
vn 8.742278E-08 0 -1
vn -1.192093E-07 0 1
vn 1.192093E-07 0 -1
vn 1.748456E-07 -1 0
vn -1.748456E-07 1 0
vn 1 1.748456E-07 1.192093E-07
vn -1 -1.748456E-07 -1.192093E-07
vn -2.384186E-07 0 1
vn 2.384186E-07 0 -1
vn -1 5.960464E-08 -1.788139E-07
vn 1 -5.960464E-08 1.788139E-07
vn 0 -1 5.960464E-08
vn 0 1 -5.960464E-08
vn 0 0 1
vn 0 0 -1
vn -1 0 0
vn 1 0 0
vn 0 -1 0
vn 0 1 0
vn 0 0 1
vn 0 0 -1
vn -1 0 0
vn 1 0 0
vn 0 -1 0
vn 0 1 0
vn -1 0 0
vn 1 0 0
vn 0 1.192093E-07 -1
vn 0 -1.192093E-07 1
vn 0 -1 1.192093E-07
vn 0 1 -1.192093E-07
vn -1 -1.748456E-07 -8.742278E-08
vn 1 1.748456E-07 8.742278E-08
vn 1.748456E-07 -1 1.528548E-14
vn -1.748456E-07 1 -1.528548E-14
vn -8.742278E-08 0 1
vn 8.742278E-08 0 -1
vn -1 -1.748456E-07 -8.742275E-08
vn 1 1.748456E-07 8.742275E-08
vn 1.748455E-07 -1 1.748456E-07
vn -1.748455E-07 1 -1.748456E-07
vn -8.742278E-08 1.748456E-07 1
vn 8.742278E-08 -1.748456E-07 -1
vn -1 -1.748456E-07 -8.742275E-08
vn 1 1.748456E-07 8.742275E-08
vn 1.748455E-07 -1 1.748456E-07
vn -1.748455E-07 1 -1.748456E-07
vn -8.742278E-08 1.748456E-07 1
vn 8.742278E-08 -1.748456E-07 -1
vt 0.06846984 0.01499593
vt 0.0830008 0.03533927
vt 0.08137333 0.03650175
vt 0.06684237 0.01615841
vt -0.06846984 0.01499593
vt -0.06684237 0.01615841
vt -0.08137333 0.03650175
vt -0.0830008 0.03533927
vt -0.01475808 0.1457916
vt -0.01386365 0.1440028
vt 0.008497039 0.1551831
vt 0.007602612 0.156972
vt 0.01475808 0.1457916
vt -0.007602612 0.156972
vt -0.008497039 0.1551831
vt 0.01386365 0.1440028
vt 0.09033996 0.1132108
vt 0.08845647 0.1138835
vt 0.0877838 0.112
vt 0.08966728 0.1113274
vt -0.09033996 0.1132108
vt -0.08966728 0.1113274
vt -0.0877838 0.112
vt -0.08845647 0.1138835
vt 0.0678886 0.0141822
vt 0.0830008 0.03533927
vt 0.08137334 0.03650175
vt 0.06626114 0.01534467
vt -0.0678886 0.0141822
vt -0.06626114 0.01534467
vt -0.08137334 0.03650175
vt -0.0830008 0.03533927
vt -0.006708229 0.1274559
vt -0.005813803 0.125667
vt 0.01744131 0.1372946
vt 0.01654689 0.1390834
vt 0.006708228 0.1274559
vt -0.01654689 0.1390834
vt -0.01744131 0.1372946
vt 0.005813803 0.125667
vt 0.08361323 0.09437599
vt 0.08172975 0.09504867
vt 0.08105707 0.09316518
vt 0.08294056 0.09249251
vt -0.08361323 0.09437599
vt -0.08294056 0.09249251
vt -0.08105707 0.09316518
vt -0.08172975 0.09504867
vt -0.09357934 0.02778318
vt -0.0805596 0.03708299
vt -0.08172208 0.03871046
vt -0.09474181 0.02941065
vt 0.09357934 0.02778318
vt 0.09474181 0.02941065
vt 0.08172208 0.03871046
vt 0.0805596 0.03708299
vt 0.09451053 0.08623666
vt 0.1032553 0.1107219
vt 0.08818741 0.1161033
vt 0.07944266 0.09161804
vt -0.09451053 0.08623666
vt -0.07944266 0.09161804
vt -0.08818741 0.1161033
vt -0.1032553 0.1107219
vt 0.01833574 0.1355057
vt 0.02012459 0.1364001
vt 0.008497035 0.1596552
vt 0.006708183 0.1587608
vt -0.01833574 0.1355057
vt -0.006708186 0.1587608
vt -0.008497039 0.1596552
vt -0.02012459 0.1364001
vt -0.07904838 0.007439843
vt -0.07742091 0.008602318
vt -0.09195187 0.02894566
vt -0.09357934 0.02778318
vt 0.07904838 0.007439843
vt 0.09357934 0.02778318
vt 0.09195187 0.02894566
vt 0.07742091 0.008602319
vt 0.1019099 0.106955
vt 0.1025826 0.1088385
vt 0.1006991 0.1095111
vt 0.1000264 0.1076277
vt -0.1019099 0.106955
vt -0.1000264 0.1076277
vt -0.1006991 0.1095111
vt -0.1025826 0.1088385
vt -0.01386363 0.1440028
vt 0.008497054 0.1551831
vt 0.007602627 0.156972
vt -0.01475806 0.1457916
vt 0.01386363 0.1440028
vt 0.01475806 0.1457916
vt -0.007602627 0.156972
vt -0.008497054 0.1551831
vt -0.005813789 0.1279031
vt -0.004919362 0.1261142
vt 0.01744132 0.1372946
vt 0.0165469 0.1390834
vt 0.005813788 0.1279031
vt -0.0165469 0.1390834
vt -0.01744132 0.1372946
vt 0.004919362 0.1261142
vt 0.09585588 0.09000362
vt 0.09397239 0.0906763
vt 0.09329972 0.08879282
vt 0.0951832 0.08812015
vt -0.09585588 0.09000363
vt -0.09518321 0.08812015
vt -0.09329972 0.08879282
vt -0.09397239 0.09067631
vt 0.07904837 0.007439814
vt 0.09357934 0.02778315
vt 0.09195187 0.02894563
vt 0.07742091 0.008602289
vt -0.07904837 0.007439814
vt -0.07742091 0.008602289
vt -0.09195187 0.02894563
vt -0.09357934 0.02778315
vt 0.01386361 0.1355057
vt 0.01744132 0.1372946
vt 0.01654689 0.1390834
vt 0.01296919 0.1372946
vt -0.01386362 0.1355057
vt -0.01296919 0.1372946
vt -0.01654689 0.1390834
vt -0.01744132 0.1372946
vt -0.09044066 0.02510949
vt -0.0790484 0.03324682
vt -0.08137335 0.03650175
vt -0.09276561 0.02836442
vt 0.09044066 0.02510949
vt 0.09276561 0.02836442
vt 0.08137335 0.03650175
vt 0.0790484 0.03324682
vt 0.09424147 0.08845647
vt 0.09491415 0.09033995
vt 0.08172975 0.09504866
vt 0.08105709 0.09316517
vt -0.09424147 0.08845647
vt -0.08105709 0.09316517
vt -0.08172975 0.09504866
vt -0.09491415 0.09033995
vt 0.01386363 0.1355057
vt 0.01744133 0.1372946
vt 0.008049843 0.1560775
vt 0.004472137 0.1542887
vt -0.01386363 0.1355057
vt -0.004472137 0.1542887
vt -0.008049843 0.1560775
vt -0.01744133 0.1372946
vt -0.08067587 0.03208435
vt -0.0790484 0.03324683
vt -0.08137335 0.03650176
vt -0.08300082 0.03533928
vt 0.08067587 0.03208435
vt 0.08300082 0.03533928
vt 0.08137335 0.03650176
vt 0.0790484 0.03324683
vt 0.08294056 0.09249251
vt 0.09000362 0.1122691
vt 0.08812014 0.1129418
vt 0.08105707 0.09316518
vt -0.08294056 0.09249251
vt -0.08105707 0.09316518
vt -0.08812014 0.1129418
vt -0.09000362 0.1122691
vt 0.004919351 0.1533943
vt 0.008497057 0.1551831
vt 0.00760263 0.156972
vt 0.004024924 0.1551831
vt -0.004919351 0.1533943
vt -0.004024924 0.1551831
vt -0.00760263 0.156972
vt -0.008497057 0.1551831
vt -0.09044068 0.02510948
vt -0.07904841 0.03324682
vt -0.08137336 0.03650175
vt -0.09276563 0.02836442
vt 0.09044068 0.02510948
vt 0.09276563 0.02836442
vt 0.08137336 0.03650175
vt 0.07904841 0.03324682
vt 0.1009682 0.1072913
vt 0.1016409 0.1091748
vt 0.08845649 0.1138835
vt 0.08778381 0.112
vt -0.1009682 0.1072913
vt -0.08778381 0.112
vt -0.08845649 0.1138835
vt -0.1016409 0.1091748
vt -0.0792809 0.03185185
vt -0.08044337 0.03347932
vt -0.09183563 0.02534198
vt -0.09067316 0.02371452
vt 0.0792809 0.03185185
vt 0.09067316 0.02371452
vt 0.09183563 0.02534198
vt 0.08044337 0.03347932
vt -0.0129692 0.1350585
vt -0.003130502 0.1547359
vt -0.004919354 0.1556303
vt -0.01475806 0.1359529
vt 0.0129692 0.1350585
vt 0.01475806 0.1359529
vt 0.004919356 0.1556303
vt 0.003130503 0.1547359
vt 0.08199881 0.09282885
vt 0.0951832 0.08812014
vt 0.1025826 0.1088385
vt 0.08939822 0.1135472
vt -0.08199881 0.09282885
vt -0.08939822 0.1135472
vt -0.1025826 0.1088385
vt -0.0951832 0.08812014
vt -0.08253581 0.01232222
vt -0.07114355 0.02045956
vt -0.07230602 0.02208702
vt -0.08369829 0.01394968
vt 0.0825358 0.01232222
vt 0.08369829 0.01394968
vt 0.07230602 0.02208702
vt 0.07114354 0.02045955
vt 0.0951832 0.08812015
vt 0.09585588 0.09000362
vt 0.08267149 0.09471234
vt 0.08199882 0.09282885
vt -0.0951832 0.08812015
vt -0.08199882 0.09282885
vt -0.08267149 0.09471234
vt -0.09585588 0.09000362
vt 0.0004472109 0.1287975
vt 0.002236064 0.1296919
vt 0.001341637 0.1314808
vt -0.0004472156 0.1305864
vt -0.0004472114 0.1287975
vt 0.000447215 0.1305864
vt -0.001341638 0.1314808
vt -0.002236064 0.1296919
vt -0.07195728 0.01987832
vt -0.0703298 0.02104079
vt -0.07149228 0.02266826
vt -0.07311974 0.02150578
vt 0.07195728 0.01987831
vt 0.07311975 0.02150578
vt 0.07149228 0.02266826
vt 0.0703298 0.02104079
vt 0.08294056 0.09249252
vt 0.09000362 0.1122691
vt 0.08812014 0.1129418
vt 0.08105707 0.0931652
vt -0.08294056 0.09249252
vt -0.08105707 0.0931652
vt -0.08812014 0.1129418
vt -0.09000362 0.1122691
vt 0.0004471971 0.1287975
vt 0.00223605 0.1296919
vt -0.007155433 0.1484749
vt -0.008944291 0.1475805
vt -0.0004471922 0.1287975
vt 0.008944291 0.1475805
vt 0.007155438 0.1484749
vt -0.00223605 0.1296919
vt -0.08172207 0.01290345
vt -0.0703298 0.02104079
vt -0.07149228 0.02266826
vt -0.08288454 0.01453092
vt 0.08172207 0.01290345
vt 0.08288454 0.01453092
vt 0.07149228 0.02266826
vt 0.0703298 0.02104079
vt 0.1009682 0.1072913
vt 0.1016409 0.1091748
vt 0.08845647 0.1138835
vt 0.0877838 0.112
vt -0.1009682 0.1072913
vt -0.0877838 0.112
vt -0.08845647 0.1138835
vt -0.1016409 0.1091748
vt -0.00849708 0.1466861
vt -0.006708228 0.1475805
vt -0.007602654 0.1493693
vt -0.009391507 0.1484749
vt 0.008497078 0.1466861
vt 0.009391503 0.1484749
vt 0.007602652 0.1493693
vt 0.006708225 0.1475805
o group1175246305
g mesh1175246305
usemtl mat20
f 4/4/1 3/3/1 2/2/1 1/1/1
f 8/8/2 7/7/2 6/6/2 5/5/2
f 2/12/3 8/11/3 5/10/3 1/9/3
f 6/16/4 7/15/4 3/14/4 4/13/4
f 5/20/5 6/19/5 4/18/5 1/17/5
f 3/24/6 7/23/6 8/22/6 2/21/6
o group199924115
g mesh199924115
usemtl mat20
f 12/28/7 11/27/7 10/26/7 9/25/7
f 16/32/8 15/31/8 14/30/8 13/29/8
f 10/36/9 16/35/9 13/34/9 9/33/9
f 14/40/10 15/39/10 11/38/10 12/37/10
f 13/44/11 14/43/11 12/42/11 9/41/11
f 11/48/12 15/47/12 16/46/12 10/45/12
o group879684549
g mesh879684549
usemtl mat20
f 20/52/13 19/51/13 18/50/13 17/49/13
f 24/56/14 23/55/14 22/54/14 21/53/14
f 18/60/15 24/59/15 21/58/15 17/57/15
f 22/64/16 23/63/16 19/62/16 20/61/16
f 21/68/17 22/67/17 20/66/17 17/65/17
f 19/72/18 23/71/18 24/70/18 18/69/18
o group453345847
g mesh453345847
usemtl mat20
f 28/76/19 27/75/19 26/74/19 25/73/19
f 32/80/20 31/79/20 30/78/20 29/77/20
f 26/84/21 32/83/21 29/82/21 25/81/21
f 30/88/22 31/87/22 27/86/22 28/85/22
f 29/92/23 30/91/23 28/90/23 25/89/23
f 27/96/24 31/95/24 32/94/24 26/93/24
o group913216562
g mesh913216562
usemtl mat20
f 36/100/25 35/99/25 34/98/25 33/97/25
f 40/104/26 39/103/26 38/102/26 37/101/26
f 34/108/27 40/107/27 37/106/27 33/105/27
f 38/112/28 39/111/28 35/110/28 36/109/28
f 37/116/29 38/115/29 36/114/29 33/113/29
f 35/120/30 39/119/30 40/118/30 34/117/30
o group1455647677
g mesh1455647677
usemtl mat20
f 44/124/31 43/123/31 42/122/31 41/121/31
f 48/128/32 47/127/32 46/126/32 45/125/32
f 42/132/33 48/131/33 45/130/33 41/129/33
f 46/136/34 47/135/34 43/134/34 44/133/34
f 45/140/35 46/139/35 44/138/35 41/137/35
f 43/144/36 47/143/36 48/142/36 42/141/36
o group2083886516
g mesh2083886516
usemtl mat20
f 52/148/37 51/147/37 50/146/37 49/145/37
f 56/152/38 55/151/38 54/150/38 53/149/38
f 50/156/39 56/155/39 53/154/39 49/153/39
f 54/160/40 55/159/40 51/158/40 52/157/40
f 53/164/41 54/163/41 52/162/41 49/161/41
f 51/168/42 55/167/42 56/166/42 50/165/42
o group839198673
g mesh839198673
usemtl mat20
f 60/172/43 59/171/43 58/170/43 57/169/43
f 64/176/44 63/175/44 62/174/44 61/173/44
f 58/180/45 64/179/45 61/178/45 57/177/45
f 62/184/46 63/183/46 59/182/46 60/181/46
f 61/188/47 62/187/47 60/186/47 57/185/47
f 59/192/48 63/191/48 64/190/48 58/189/48
o group565272597
g mesh565272597
usemtl mat20
f 68/196/49 67/195/49 66/194/49 65/193/49
f 72/200/50 71/199/50 70/198/50 69/197/50
f 66/204/51 72/203/51 69/202/51 65/201/51
f 70/208/52 71/207/52 67/206/52 68/205/52
f 69/212/53 70/211/53 68/210/53 65/209/53
f 67/216/54 71/215/54 72/214/54 66/213/54
o group1945658578
g mesh1945658578
usemtl mat20
f 76/220/55 75/219/55 74/218/55 73/217/55
f 80/224/56 79/223/56 78/222/56 77/221/56
f 74/228/57 80/227/57 77/226/57 73/225/57
f 78/232/58 79/231/58 75/230/58 76/229/58
f 77/236/59 78/235/59 76/234/59 73/233/59
f 75/240/60 79/239/60 80/238/60 74/237/60
o group1493354658
g mesh1493354658
usemtl mat20
f 84/244/61 83/243/61 82/242/61 81/241/61
f 88/248/62 87/247/62 86/246/62 85/245/62
f 82/252/63 88/251/63 85/250/63 81/249/63
f 86/256/64 87/255/64 83/254/64 84/253/64
f 85/260/65 86/259/65 84/258/65 81/257/65
f 83/264/66 87/263/66 88/262/66 82/261/66
o group1188701389
g mesh1188701389
usemtl mat20
f 92/268/67 91/267/67 90/266/67 89/265/67
f 96/272/68 95/271/68 94/270/68 93/269/68
f 90/276/69 96/275/69 93/274/69 89/273/69
f 94/280/70 95/279/70 91/278/70 92/277/70
f 93/284/71 94/283/71 92/282/71 89/281/71
f 91/288/72 95/287/72 96/286/72 90/285/72
