# Blender v2.93.1 OBJ File: 'aphmau_itemsblend.blend'
# www.blender.org
mtllib ticket.mtl
o 1_Ticket.001_Valec.162
v 11.819814 1.250713 -365.209717
v 11.830589 1.250713 -365.209717
v 11.819814 1.110002 -365.210114
v 11.830589 1.110002 -365.210114
v 11.819814 1.103172 -365.172974
v 11.830589 1.103172 -365.172974
v 11.819814 1.092173 -365.155762
v 11.830589 1.092173 -365.155762
v 11.819814 1.074019 -365.146912
v 11.830589 1.074019 -365.146912
v 11.819814 1.073837 -364.813599
v 11.830589 1.073837 -364.813599
v 11.819814 1.091666 -364.799744
v 11.830589 1.091666 -364.799744
v 11.819814 1.102178 -364.781342
v 11.830589 1.102178 -364.781342
v 11.819814 1.106916 -364.743469
v 11.830589 1.106916 -364.743469
v 11.819814 1.247626 -364.743073
v 11.830589 1.247626 -364.743073
v 11.819814 1.254475 -364.780212
v 11.830589 1.254475 -364.780212
v 11.819814 1.265476 -364.797424
v 11.830589 1.265476 -364.797424
v 11.819814 1.283630 -364.806274
v 11.830589 1.283630 -364.806274
v 11.819814 1.283812 -365.139587
v 11.830589 1.283812 -365.139587
v 11.819814 1.265982 -365.153442
v 11.830589 1.265982 -365.153442
v 11.819814 1.255470 -365.171844
v 11.830589 1.255470 -365.171844
v 11.819830 1.242208 -365.200592
v 11.819830 1.118142 -365.200989
v 11.830574 1.118142 -365.200989
v 11.830574 1.242208 -365.200592
v 11.819830 1.110821 -365.170197
v 11.830574 1.110821 -365.168091
v 11.819830 1.097820 -365.145935
v 11.830574 1.097820 -365.147797
v 11.819830 1.083988 -365.141022
v 11.830574 1.083988 -365.141022
v 11.819830 1.083824 -364.819244
v 11.830574 1.083824 -364.819244
v 11.819830 1.097347 -364.807617
v 11.830574 1.097347 -364.809448
v 11.819830 1.109927 -364.786224
v 11.830574 1.109927 -364.784149
v 11.819830 1.115420 -364.752594
v 11.830574 1.115420 -364.752594
v 11.819830 1.239487 -364.752228
v 11.830574 1.239487 -364.752228
v 11.819830 1.246826 -364.783020
v 11.830574 1.246826 -364.783020
v 11.819830 1.259828 -364.807251
v 11.830574 1.259828 -364.807251
v 11.819830 1.273660 -364.812195
v 11.830574 1.273660 -364.812195
v 11.819830 1.273825 -365.133942
v 11.830574 1.273825 -365.133942
v 11.819830 1.260301 -365.143738
v 11.830574 1.260301 -365.143738
v 11.819830 1.247720 -365.169067
v 11.830574 1.247720 -365.169067
v 11.819846 1.236480 -365.190521
v 11.819846 1.123625 -365.190887
v 11.830558 1.123625 -365.190887
v 11.830558 1.236480 -365.190521
v 11.819846 1.116932 -365.159271
v 11.830558 1.116932 -365.157288
v 11.819846 1.108364 -365.144012
v 11.830558 1.106888 -365.143005
v 11.819846 1.093605 -365.134399
v 11.830558 1.093605 -365.134399
v 11.819846 1.093458 -364.824921
v 11.830558 1.093458 -364.824921
v 11.819846 1.106467 -364.812317
v 11.830558 1.106467 -364.814117
v 11.819846 1.116118 -364.796936
v 11.830558 1.116118 -364.794983
v 11.819846 1.121149 -364.762695
v 11.830558 1.121149 -364.762695
v 11.819846 1.234004 -364.762299
v 11.830558 1.234004 -364.762299
v 11.819846 1.240713 -364.793915
v 11.830558 1.240713 -364.793915
v 11.819846 1.250783 -364.811981
v 11.830558 1.250783 -364.811981
v 11.819846 1.263650 -364.818115
v 11.830558 1.263650 -364.818115
v 11.819846 1.263798 -365.127594
v 11.830558 1.263798 -365.127594
v 11.819846 1.251204 -365.139069
v 11.830558 1.251204 -365.139069
v 11.819846 1.241527 -365.158203
v 11.830558 1.241527 -365.158203
vt 0.670423 0.762204
vt 0.653536 0.762204
vt 0.653536 0.706032
vt 0.670423 0.706032
vt 0.385082 0.724676
vt 0.385480 0.680792
vt 0.355820 0.680814
vt 0.355422 0.724698
vt 0.342053 0.680824
vt 0.341655 0.724709
vt 0.335002 0.680830
vt 0.334604 0.724714
vt 0.068788 0.681027
vt 0.068390 0.724912
vt 0.057736 0.681036
vt 0.057337 0.724920
vt 0.043018 0.681047
vt 0.042619 0.724931
vt 0.012770 0.681069
vt 0.012371 0.724953
vt 0.670423 0.704800
vt 0.653536 0.704800
vt 0.653536 0.760972
vt 0.670423 0.760972
vt 0.012064 0.724953
vt 0.012462 0.681069
vt 0.042122 0.681047
vt 0.041724 0.724932
vt 0.055861 0.681037
vt 0.055463 0.724921
vt 0.062940 0.681031
vt 0.062542 0.724916
vt 0.329154 0.680834
vt 0.328756 0.724718
vt 0.340207 0.680826
vt 0.339808 0.724710
vt 0.386529 0.998179
vt 0.388995 0.998012
vt 0.388401 0.997712
vt 0.386349 0.997906
vt 0.354897 0.680815
vt 0.354498 0.724699
vt 0.385145 0.680792
vt 0.384746 0.724677
vt 0.362314 0.992411
vt 0.361118 0.992781
vt 0.361435 0.993054
vt 0.362827 0.992611
vt 0.250642 0.981924
vt 0.249385 0.982475
vt 0.250015 0.982746
vt 0.250918 0.982323
vt 0.269821 0.989652
vt 0.250911 0.989645
vt 0.251260 0.989207
vt 0.269448 0.989213
vt 0.361118 0.992781
vt 0.362314 0.992411
vt 0.362947 0.992611
vt 0.361300 0.993054
vt 0.388995 0.998012
vt 0.386529 0.998179
vt 0.386349 0.997906
vt 0.388401 0.997712
vt 0.386602 0.992816
vt 0.385483 0.992429
vt 0.384844 0.992628
vt 0.386422 0.993085
vt 0.362164 0.998532
vt 0.362739 0.999171
vt 0.363125 0.998820
vt 0.362803 0.998333
vt 0.385483 0.992429
vt 0.386602 0.992816
vt 0.386285 0.993085
vt 0.384964 0.992628
vt 0.362739 0.999171
vt 0.362164 0.998532
vt 0.362803 0.998333
vt 0.363125 0.998820
vt 0.358653 0.992948
vt 0.359246 0.993247
vt 0.358653 0.992948
vt 0.359246 0.993247
vt 0.384907 0.991790
vt 0.384525 0.992141
vt 0.384431 0.999177
vt 0.384064 0.998826
vt 0.384907 0.991790
vt 0.384525 0.992141
vt 0.384431 0.999177
vt 0.384064 0.998826
vt 0.358627 0.997903
vt 0.359223 0.997616
vt 0.358627 0.997903
vt 0.359223 0.997616
vt 0.363217 0.991783
vt 0.363584 0.992135
vt 0.385333 0.998549
vt 0.384701 0.998349
vt 0.389021 0.993057
vt 0.388427 0.993343
vt 0.363217 0.991783
vt 0.363584 0.992135
vt 0.385333 0.998549
vt 0.384701 0.998349
vt 0.389021 0.993057
vt 0.388427 0.993343
vt 0.361043 0.998144
vt 0.361225 0.997875
vt 0.361043 0.998144
vt 0.361225 0.997875
vt 0.561932 0.824032
vt 0.561572 0.931048
vt 0.529594 0.939763
vt 0.528653 0.813074
vt 0.027079 0.931048
vt 0.026719 0.824032
vt 0.057972 0.813074
vt 0.059058 0.939763
vt 0.269821 0.989652
vt 0.270397 0.989060
vt 0.270123 0.988662
vt 0.269448 0.989213
vt 0.249263 0.982475
vt 0.250749 0.981924
vt 0.251024 0.982323
vt 0.249900 0.982746
vt 0.273739 0.988268
vt 0.273761 0.982835
vt 0.273169 0.983075
vt 0.273146 0.988017
vt 0.270397 0.989060
vt 0.270123 0.988662
vt 0.247408 0.982715
vt 0.248002 0.982966
vt 0.273761 0.982835
vt 0.273739 0.988268
vt 0.273146 0.988017
vt 0.273169 0.983075
vt 0.271886 0.988509
vt 0.271247 0.988238
vt 0.247408 0.982715
vt 0.248002 0.982966
vt 0.271952 0.982514
vt 0.271310 0.982781
vt 0.271886 0.988509
vt 0.271247 0.988238
vt 0.247387 0.988149
vt 0.247979 0.987908
vt 0.271829 0.982514
vt 0.271193 0.982781
vt 0.247387 0.988149
vt 0.247979 0.987908
vt 0.270525 0.981945
vt 0.270412 0.982406
vt 0.249196 0.988470
vt 0.249838 0.988202
vt 0.270635 0.981945
vt 0.270354 0.982342
vt 0.249196 0.988470
vt 0.249838 0.988202
vt 0.270237 0.981339
vt 0.269848 0.981760
vt 0.250621 0.989039
vt 0.250899 0.988643
vt 0.270237 0.981339
vt 0.269848 0.981760
vt 0.250621 0.989039
vt 0.250899 0.988643
vt 0.251325 0.981332
vt 0.251660 0.981754
vt 0.250911 0.989645
vt 0.251260 0.989207
vt 0.251325 0.981332
vt 0.251660 0.981754
vt 0.058870 0.812246
vt 0.057784 0.938935
vt 0.026719 0.929274
vt 0.027088 0.819622
vt 0.501943 0.966411
vt 0.482916 0.982141
vt 0.096378 0.981956
vt 0.084017 0.965885
vt 0.086683 0.785630
vt 0.104881 0.769381
vt 0.491418 0.769565
vt 0.506861 0.786156
vt 0.080546 0.788000
vt 0.097233 0.769565
vt 0.483770 0.769381
vt 0.504220 0.785630
vt 0.527804 0.812246
vt 0.530867 0.938935
vt 0.504634 0.965885
vt 0.492273 0.981956
vt 0.105736 0.982141
vt 0.086708 0.966411
vt 0.561563 0.819622
vt 0.561932 0.929274
vn 0.0000 0.0028 -1.0000
vn 0.0000 -0.9835 -0.1809
vn 0.0000 -0.8426 -0.5385
vn 0.0000 -0.4382 -0.8989
vn 0.0000 -1.0000 -0.0005
vn 0.0000 -0.6136 0.7896
vn 0.0000 -0.8683 0.4960
vn 0.0000 -0.9923 0.1241
vn 0.0000 -0.0028 1.0000
vn 0.0000 0.9834 0.1813
vn 0.0000 0.8426 0.5385
vn 0.0000 0.4382 0.8989
vn 0.0000 1.0000 0.0005
vn 0.0000 0.6136 -0.7896
vn -1.0000 -0.0019 0.0003
vn 0.0000 0.8683 -0.4960
vn 0.0000 0.9922 -0.1246
vn -1.0000 0.0017 -0.0009
vn -1.0000 0.0013 -0.0008
vn 1.0000 -0.0016 -0.0000
vn 1.0000 0.0015 -0.0008
vn 1.0000 -0.0017 0.0003
vn -1.0000 0.0015 0.0009
vn -1.0000 -0.0006 -0.0014
vn 1.0000 0.0015 0.0009
vn 1.0000 -0.0006 -0.0014
vn -1.0000 0.0017 -0.0003
vn 1.0000 0.0018 -0.0002
vn -1.0000 0.0006 0.0014
vn -1.0000 -0.0016 -0.0000
vn 1.0000 0.0006 0.0014
vn 1.0000 -0.0015 -0.0000
vn -1.0000 0.0000 -0.0018
vn 1.0000 0.0000 -0.0017
vn -1.0000 0.0016 0.0000
vn -1.0000 -0.0010 0.0012
vn -1.0000 -0.0000 0.0018
vn 1.0000 0.0015 0.0000
vn 1.0000 -0.0008 0.0011
vn 1.0000 -0.0000 0.0017
vn -1.0000 -0.0018 -0.0004
vn 1.0000 -0.0016 -0.0003
vn -1.0000 0.0010 -0.0012
vn -1.0000 -0.0016 0.0009
vn 1.0000 0.0008 -0.0011
vn 1.0000 -0.0015 0.0008
vn -1.0000 0.0018 0.0004
vn -1.0000 -0.0017 -0.0009
vn 1.0000 0.0017 0.0003
vn 1.0000 -0.0015 -0.0009
vn 1.0000 0.0000 0.0000
vn -1.0000 -0.0000 0.0000
vn 1.0000 0.0014 -0.0007
vn -1.0000 -0.0000 0.0016
vn 1.0000 -0.0010 0.0012
vn -1.0000 0.0022 -0.0003
vn 1.0000 -0.0000 0.0016
vn -1.0000 -0.0013 0.0007
vn 1.0000 0.0022 -0.0003
vn -1.0000 0.0020 0.0004
vn 1.0000 -0.0013 0.0007
vn -1.0000 0.0000 -0.0016
vn 1.0000 0.0019 0.0004
vn -1.0000 -0.0022 0.0003
vn 1.0000 0.0000 -0.0016
vn -1.0000 0.0013 0.0007
vn 1.0000 -0.0022 0.0003
vn -1.0000 -0.0020 -0.0004
vn 1.0000 0.0012 0.0008
vn 1.0000 -0.0019 -0.0004
vn -1.0000 0.0009 0.0017
vn -1.0000 -0.0014 -0.0007
vn 1.0000 0.0008 0.0015
vn 1.0000 -0.0012 -0.0007
vn -1.0000 0.0017 0.0000
vn -1.0000 -0.0007 -0.0017
vn 1.0000 0.0016 0.0000
vn 1.0000 -0.0007 -0.0017
vn -1.0000 0.0011 -0.0012
vn 1.0000 0.0010 -0.0013
usemtl Materiál.275
s off
f 1/1/1 2/2/1 4/3/1 3/4/1
f 3/5/2 4/6/2 6/7/2 5/8/2
f 5/8/3 6/7/3 8/9/3 7/10/3
f 7/10/4 8/9/4 10/11/4 9/12/4
f 9/12/5 10/11/5 12/13/5 11/14/5
f 11/14/6 12/13/6 14/15/6 13/16/6
f 13/16/7 14/15/7 16/17/7 15/18/7
f 15/18/8 16/17/8 18/19/8 17/20/8
f 17/21/9 18/22/9 20/23/9 19/24/9
f 19/25/10 20/26/10 22/27/10 21/28/10
f 21/28/11 22/27/11 24/29/11 23/30/11
f 23/30/12 24/29/12 26/31/12 25/32/12
f 25/32/13 26/31/13 28/33/13 27/34/13
f 27/34/14 28/33/14 30/35/14 29/36/14
f 31/37/15 1/38/15 33/39/15 63/40/15
f 29/36/16 30/35/16 32/41/16 31/42/16
f 31/42/17 32/41/17 2/43/17 1/44/17
f 13/45/18 15/46/18 47/47/18 45/48/18
f 45/49/19 47/50/19 79/51/19 77/52/19
f 60/53/20 58/54/20 90/55/20 92/56/20
f 16/57/21 14/58/21 46/59/21 48/60/21
f 2/61/22 32/62/22 64/63/22 36/64/22
f 5/65/23 7/66/23 39/67/23 37/68/23
f 23/69/24 25/70/24 57/71/24 55/72/24
f 8/73/25 6/74/25 38/75/25 40/76/25
f 26/77/26 24/78/26 56/79/26 58/80/26
f 15/46/27 17/81/27 49/82/27 47/47/27
f 18/83/28 16/57/28 48/60/28 50/84/28
f 7/66/29 9/85/29 41/86/29 39/67/29
f 25/70/30 27/87/30 59/88/30 57/71/30
f 10/89/31 8/73/31 40/76/31 42/90/31
f 28/91/32 26/77/32 58/80/32 60/92/32
f 17/81/33 19/93/33 51/94/33 49/82/33
f 20/95/34 18/83/34 50/84/34 52/96/34
f 9/85/35 11/97/35 43/98/35 41/86/35
f 27/87/36 29/99/36 61/100/36 59/88/36
f 1/38/37 3/101/37 34/102/37 33/39/37
f 12/103/38 10/89/38 42/90/38 44/104/38
f 30/105/39 28/91/39 60/92/39 62/106/39
f 4/107/40 2/61/40 36/64/40 35/108/40
f 19/93/41 21/109/41 53/110/41 51/94/41
f 22/111/42 20/95/42 52/96/42 54/112/42
f 11/97/43 13/45/43 45/48/43 43/98/43
f 29/99/44 31/37/44 63/40/44 61/100/44
f 14/58/45 12/103/45 44/104/45 46/59/45
f 32/62/46 30/105/46 62/106/46 64/63/46
f 3/101/47 5/65/47 37/68/47 34/102/47
f 21/109/48 23/69/48 55/72/48 53/110/48
f 6/74/49 4/107/49 35/108/49 38/75/49
f 24/78/50 22/111/50 54/112/50 56/79/50
f 67/113/51 68/114/51 96/115/51 70/116/51
f 65/117/52 66/118/52 69/119/52 95/120/52
f 59/121/36 61/122/36 93/123/36 91/124/36
f 48/125/53 46/126/53 78/127/53 80/128/53
f 33/129/54 34/130/54 66/131/54 65/132/54
f 62/133/55 60/53/55 92/56/55 94/134/55
f 47/50/56 49/135/56 81/136/56 79/51/56
f 35/137/57 36/138/57 68/139/57 67/140/57
f 61/122/58 63/141/58 95/142/58 93/123/58
f 50/143/59 48/125/59 80/128/59 82/144/59
f 34/130/60 37/145/60 69/146/60 66/131/60
f 64/147/61 62/133/61 94/134/61 96/148/61
f 49/135/62 51/149/62 83/150/62 81/136/62
f 38/151/63 35/137/63 67/140/63 70/152/63
f 63/141/64 33/129/64 65/132/64 95/142/64
f 52/153/65 50/143/65 82/144/65 84/154/65
f 37/145/66 39/155/66 71/156/66 69/146/66
f 36/138/67 64/147/67 96/148/67 68/139/67
f 51/149/68 53/157/68 85/158/68 83/150/68
f 40/159/69 38/151/69 70/152/69 72/160/69
f 54/161/70 52/153/70 84/154/70 86/162/70
f 39/155/71 41/163/71 73/164/71 71/156/71
f 53/157/72 55/165/72 87/166/72 85/158/72
f 42/167/73 40/159/73 72/160/73 74/168/73
f 56/169/74 54/161/74 86/162/74 88/170/74
f 41/163/75 43/171/75 75/172/75 73/164/75
f 55/165/76 57/173/76 89/174/76 87/166/76
f 44/175/77 42/167/77 74/168/77 76/176/77
f 58/54/78 56/169/78 88/170/78 90/55/78
f 43/171/79 45/49/79 77/52/79 75/172/79
f 57/173/30 59/121/30 91/124/30 89/174/30
f 46/126/80 44/175/80 76/176/80 78/127/80
f 80/177/51 86/178/51 84/179/51 82/180/51
f 70/116/51 96/115/51 94/181/51 92/182/51 90/183/51 88/184/51 86/178/51 80/177/51 78/185/51 76/186/51 74/187/51 72/188/51
f 95/120/52 69/119/52 71/189/52 73/190/52 75/191/52 77/192/52 79/193/52 85/194/52 87/195/52 89/196/52 91/197/52 93/198/52
f 85/194/52 79/193/52 81/199/52 83/200/52
